<?xml version="1.0" standalone="no"?>
<!DOCTYPE svg PUBLIC "-//W3C//DTD SVG 20010904//EN"
        "http://www.w3.org/TR/2001/REC-SVG-20010904/DTD/svg10.dtd">
<svg version="1.0" xmlns="http://www.w3.org/2000/svg"
     width="512.000000pt" height="512.000000pt" viewBox="0 0 512.000000 512.000000"
     preserveAspectRatio="xMidYMid meet">
    <metadata>
        Created by potrace 1.14, written by Peter Selinger 2001-2017
    </metadata>
    <g transform="translate(0.000000,512.000000) scale(0.100000,-0.100000)"
       fill="#000000" stroke="none">
        <path d="M1670 4514 c0 -7 14 -43 31 -80 17 -38 42 -93 55 -122 13 -29 24 -54
24 -56 0 -3 10 -26 22 -53 11 -26 22 -54 24 -61 1 -8 9 -21 18 -30 8 -10 15
-19 14 -22 0 -16 15 -60 21 -60 4 0 8 -10 8 -22 1 -13 7 -24 13 -26 5 -2 10
-12 10 -22 0 -10 5 -22 10 -25 6 -3 10 -15 10 -26 0 -10 5 -19 10 -19 6 0 9
-3 8 -7 -1 -5 5 -21 12 -38 7 -16 14 -32 15 -35 0 -3 10 -25 22 -50 46 -101
61 -139 55 -144 -3 -3 0 -6 6 -6 7 0 12 -4 12 -9 0 -15 193 -455 203 -462 5
-3 9 -10 8 -15 0 -17 34 -104 41 -104 5 0 8 -7 8 -15 0 -8 4 -23 10 -33 23
-41 72 -158 73 -174 1 -10 7 -20 15 -23 7 -3 11 -9 7 -14 -3 -5 -1 -12 5 -16
5 -3 10 -15 10 -26 0 -10 5 -19 10 -19 6 0 10 -6 10 -13 0 -8 6 -27 14 -43 8
-16 44 -99 81 -184 37 -85 76 -175 87 -200 34 -74 51 -115 47 -115 -2 0 4 -13
14 -30 16 -30 70 -149 78 -172 2 -7 27 15 54 49 54 67 84 104 100 122 6 6 26
31 45 56 19 25 37 47 40 50 3 3 23 28 44 55 46 58 57 72 86 103 11 12 20 25
20 30 0 4 9 13 20 20 11 7 20 19 20 27 0 8 4 15 8 15 4 0 26 24 47 53 22 28
48 61 58 71 16 19 16 21 -15 54 -18 20 -40 43 -48 52 -65 72 -80 91 -80 99 0
5 -9 13 -20 16 -11 3 -20 10 -20 14 0 7 -65 84 -234 275 -34 38 -71 79 -83 92
-13 13 -23 25 -23 28 0 3 -15 20 -32 38 -18 18 -51 55 -73 82 -22 26 -51 60
-65 75 -36 38 -206 231 -242 274 -10 12 -37 43 -61 69 -51 58 -73 83 -157 178
-36 40 -71 80 -78 87 -7 7 -12 13 -9 13 2 0 -18 24 -46 53 -27 28 -63 69 -80
91 -18 21 -47 54 -64 74 -18 19 -33 39 -33 43 0 5 -6 9 -13 9 -8 0 -18 9 -23
19 -5 11 -38 51 -73 90 -35 40 -70 79 -77 89 -8 9 -14 12 -14 6z"/>
        <path d="M1863 3668 c-1 -24 -4 -77 -8 -118 -4 -41 -8 -100 -10 -130 -2 -30
-4 -55 -5 -55 -3 0 -7 -42 -14 -153 -4 -56 -9 -112 -11 -125 -3 -12 -7 -60
-10 -107 -3 -47 -7 -101 -10 -120 -2 -19 -6 -68 -9 -107 -4 -40 -8 -90 -11
-110 -2 -21 -7 -76 -10 -123 -3 -47 -7 -101 -10 -120 -2 -19 -6 -71 -10 -115
-3 -44 -8 -96 -10 -115 -3 -35 -12 -133 -21 -245 -2 -33 -7 -84 -9 -113 -3
-29 -3 -57 0 -61 2 -5 24 -5 47 -1 24 5 70 11 103 15 76 8 116 14 185 26 30 5
82 11 115 14 33 3 71 8 85 10 14 3 48 7 75 10 28 4 58 9 69 12 10 3 39 7 65 9
25 2 62 6 81 9 19 3 57 8 85 11 45 5 78 24 55 32 -6 2 -10 8 -10 13 0 6 -8 29
-19 52 -10 23 -33 76 -51 117 -18 41 -45 103 -61 138 -16 35 -29 67 -29 72 0
9 -39 93 -66 143 -8 15 -13 27 -10 27 2 0 -9 28 -26 63 -17 34 -31 67 -32 72
-1 6 -13 33 -25 60 -13 28 -29 64 -36 80 -7 17 -23 52 -35 80 -25 55 -43 97
-45 105 0 3 -11 28 -24 55 -12 28 -41 93 -63 145 -22 52 -53 123 -69 158 -16
35 -29 66 -29 68 0 3 -12 31 -26 62 -14 31 -32 71 -39 87 -7 17 -24 55 -38 85
-13 30 -30 72 -38 93 -18 50 -36 47 -36 -5z"/>
        <path d="M4460 2857 c-40 -21 -75 -42 -80 -47 -15 -15 -71 -50 -80 -50 -5 0
-10 -4 -10 -9 0 -5 -13 -14 -30 -21 -16 -7 -30 -16 -30 -21 0 -5 -4 -9 -10 -9
-5 0 -35 -18 -67 -39 -160 -108 -415 -271 -423 -271 -6 0 -10 -4 -10 -10 0 -5
-6 -10 -14 -10 -8 0 -16 -3 -18 -7 -3 -9 -64 -53 -73 -53 -3 0 -27 -16 -54
-35 -26 -19 -53 -35 -58 -35 -6 0 -18 -9 -28 -20 -10 -11 -22 -20 -27 -20 -5
0 -14 -5 -21 -11 -7 -6 -64 -44 -127 -84 -63 -40 -121 -79 -127 -85 -7 -6 -13
-8 -13 -5 0 3 -10 -3 -22 -15 -12 -11 -28 -20 -35 -20 -7 0 -13 -4 -13 -10 0
-5 -7 -10 -15 -10 -9 0 -18 -7 -21 -15 -4 -8 -10 -15 -16 -15 -5 0 -36 -18
-68 -40 -32 -22 -62 -40 -66 -40 -13 0 -55 -53 -47 -59 5 -3 20 -33 33 -66 13
-33 27 -64 32 -69 4 -6 8 -16 8 -23 0 -7 11 -37 25 -67 14 -30 25 -58 25 -61
0 -3 9 -25 19 -49 11 -23 30 -67 41 -97 12 -30 28 -67 35 -84 12 -28 103 -246
120 -290 5 -11 7 -23 7 -27 -1 -5 3 -8 8 -8 6 0 10 -7 8 -16 -6 -35 20 -22 49
23 183 288 274 433 307 485 21 35 42 65 46 68 4 3 10 15 14 28 4 12 11 22 15
22 5 0 14 14 21 30 7 17 16 30 21 30 5 0 9 4 9 9 0 11 142 238 164 264 9 9 16
20 16 23 0 3 14 25 30 49 17 24 30 48 30 54 0 6 5 11 10 11 6 0 10 7 10 15 0
9 7 18 15 21 8 4 15 10 15 15 0 8 377 607 390 619 3 3 13 21 24 40 10 19 26
41 34 48 9 6 12 12 8 12 -4 0 5 16 20 35 30 39 29 40 -6 22z"/>
        <path d="M4188 2805 c-3 -3 -14 -7 -24 -10 -11 -2 -39 -11 -64 -20 -25 -9 -56
-19 -69 -21 -14 -3 -29 -8 -35 -12 -6 -3 -17 -7 -24 -8 -12 -2 -94 -28 -132
-42 -8 -3 -19 -7 -25 -8 -5 -1 -13 -3 -17 -4 -5 -1 -11 -3 -15 -4 -5 -1 -12
-4 -18 -7 -5 -3 -78 -28 -162 -54 l-152 -49 -53 -64 c-29 -35 -66 -79 -83 -96
-16 -18 -41 -48 -55 -66 -14 -18 -36 -45 -50 -59 -14 -14 -45 -51 -70 -81 -25
-30 -54 -65 -65 -76 -11 -12 -28 -32 -39 -45 -10 -13 -33 -39 -50 -58 -28 -30
-28 -32 -7 -21 13 7 56 34 95 59 39 26 92 61 118 77 27 16 48 32 48 37 0 4 5
7 11 7 5 0 38 19 72 42 34 23 62 40 62 38 0 -3 11 4 23 16 12 11 35 27 50 35
15 8 29 16 32 19 10 11 60 40 66 39 4 0 11 6 16 15 5 9 16 16 23 16 8 0 15 5
15 11 0 5 5 7 10 4 6 -3 10 -2 10 4 0 5 23 22 50 37 28 15 50 31 50 36 0 4 5
8 10 8 6 0 32 15 58 33 26 18 55 36 65 40 9 3 17 11 17 17 0 5 5 10 12 10 13
0 80 44 112 73 11 9 23 17 27 17 8 0 99 58 109 69 3 4 17 12 33 20 15 8 27 18
27 23 0 9 -4 10 -12 3z"/>
        <path d="M2545 1758 c-27 -4 -75 -10 -105 -13 -89 -9 -133 -14 -250 -30 -14
-2 -52 -6 -85 -10 -33 -3 -73 -8 -90 -10 -16 -3 -55 -7 -85 -10 -30 -3 -64 -7
-75 -9 -11 -2 -49 -7 -85 -11 -93 -9 -92 -9 -126 -72 -81 -155 -99 -189 -109
-195 -5 -4 -7 -8 -3 -8 4 0 -7 -24 -24 -52 -17 -29 -31 -58 -31 -65 0 -7 -6
-14 -13 -17 -7 -3 -15 -18 -19 -35 -4 -17 -10 -33 -15 -36 -5 -3 -19 -27 -32
-53 -13 -26 -27 -50 -33 -54 -5 -4 -6 -8 -1 -8 5 0 4 -6 -2 -13 -15 -18 -93
-169 -89 -173 3 -3 77 44 87 55 3 4 17 12 33 18 15 7 27 17 27 23 0 6 5 8 10
5 6 -3 10 -1 10 6 0 7 3 9 6 6 4 -4 15 3 25 15 11 11 19 17 19 12 0 -5 4 -4 8
2 4 5 25 21 47 34 22 13 45 28 50 33 24 19 388 257 394 257 3 0 19 11 34 25
15 14 27 23 27 20 0 -7 103 65 111 77 3 6 8 8 10 7 3 -3 403 257 428 278 11 8
-8 9 -54 1z"/>
        <path d="M2625 1661 c-49 -33 -95 -65 -102 -70 -7 -6 -15 -11 -18 -11 -3 0
-34 -19 -68 -42 -34 -23 -62 -40 -62 -38 0 3 -11 -5 -23 -16 -13 -12 -40 -30
-60 -40 -20 -11 -39 -22 -40 -27 -2 -4 -18 -15 -34 -23 -17 -9 -36 -21 -42
-26 -6 -5 -114 -76 -241 -158 -126 -82 -235 -153 -242 -159 -7 -6 -17 -11 -23
-11 -5 0 -10 -4 -10 -10 0 -5 -7 -10 -15 -10 -8 0 -15 -5 -15 -11 0 -5 -4 -7
-10 -4 -5 3 -10 1 -10 -5 0 -6 -8 -13 -17 -17 -10 -3 -43 -23 -73 -43 -30 -21
-88 -59 -128 -85 -40 -26 -71 -49 -68 -52 4 -4 102 -5 312 -1 45 0 86 -2 91
-5 6 -4 13 -4 17 0 9 9 147 10 153 0 2 -4 10 -4 16 0 11 7 194 10 870 13 180
1 327 5 327 9 0 7 -87 216 -136 329 -77 176 -139 327 -136 335 1 4 -3 7 -8 7
-5 0 -9 3 -8 8 2 10 -18 60 -68 167 -10 22 -17 43 -16 48 5 19 -30 2 -113 -52z"/>
    </g>
</svg>
